<svg xmlns="http://www.w3.org/2000/svg" viewBox="0 0 1280 720" width="1280" height="720">
  <rect width="1280" height="720" fill="#F7FAFC" />
  <rect x="0" y="0" width="1280" height="100" fill="#EAF1F8" />
  <text x="64" y="66" font-family="&quot;Microsoft YaHei&quot;, &quot;PingFang SC&quot;, Arial, sans-serif" font-size="40" font-weight="700" fill="#0B1F3A">Step1: DSL-Driven Keyword Extraction</text>

  <path fill="#FFFFFF" stroke="#CBD5E1" d="M76,140 H582 A12,12 0 0 1 594,152 V628 A12,12 0 0 1 582,640 H76 A12,12 0 0 1 64,628 V152 A12,12 0 0 1 76,140 Z" />
  <text x="94" y="186" font-family="&quot;Microsoft YaHei&quot;, &quot;PingFang SC&quot;, Arial, sans-serif" font-size="26" font-weight="700" fill="#1F6FEB">Query → Structured Query</text>

  <path fill="#0B1F3A" d="M104,220 H554 A10,10 0 0 1 564,230 V600 A10,10 0 0 1 554,610 H104 A10,10 0 0 1 94,600 V230 A10,10 0 0 1 104,220 Z" />
  <text x="116" y="260" font-family="&quot;Microsoft YaHei&quot;, &quot;PingFang SC&quot;, Arial, sans-serif" font-size="18" fill="#EAF1F8">{"keywords":[{"term":"readahead",</text>
  <text x="116" y="292" font-family="&quot;Microsoft YaHei&quot;, &quot;PingFang SC&quot;, Arial, sans-serif" font-size="18" fill="#EAF1F8">"synonyms":["read_ahead","prefetch"]}],</text>
  <text x="116" y="324" font-family="&quot;Microsoft YaHei&quot;, &quot;PingFang SC&quot;, Arial, sans-serif" font-size="18" fill="#EAF1F8">"target":"function",</text>
  <text x="116" y="356" font-family="&quot;Microsoft YaHei&quot;, &quot;PingFang SC&quot;, Arial, sans-serif" font-size="18" fill="#EAF1F8">"filters":[{"concept":"disk"},</text>
  <text x="116" y="388" font-family="&quot;Microsoft YaHei&quot;, &quot;PingFang SC&quot;, Arial, sans-serif" font-size="18" fill="#EAF1F8">{"concept":"performance"}]}</text>

  <path fill="#FFFFFF" stroke="#CBD5E1" d="M652,140 H1204 A12,12 0 0 1 1216,152 V278 A12,12 0 0 1 1204,290 H652 A12,12 0 0 1 640,278 V152 A12,12 0 0 1 652,140 Z" />
  <text x="670" y="196" font-family="&quot;Microsoft YaHei&quot;, &quot;PingFang SC&quot;, Arial, sans-serif" font-size="26" font-weight="700" fill="#1F6FEB">统一语义接口</text>
  <text x="670" y="234" font-family="&quot;Microsoft YaHei&quot;, &quot;PingFang SC&quot;, Arial, sans-serif" font-size="21" fill="#334155">将自然语言 query 映射为可执行检索意图</text>

  <path fill="#FFFFFF" stroke="#CBD5E1" d="M652,315 H1204 A12,12 0 0 1 1216,327 V453 A12,12 0 0 1 1204,465 H652 A12,12 0 0 1 640,453 V327 A12,12 0 0 1 652,315 Z" />
  <text x="670" y="371" font-family="&quot;Microsoft YaHei&quot;, &quot;PingFang SC&quot;, Arial, sans-serif" font-size="26" font-weight="700" fill="#1F6FEB">结构化字段</text>
  <text x="670" y="409" font-family="&quot;Microsoft YaHei&quot;, &quot;PingFang SC&quot;, Arial, sans-serif" font-size="21" fill="#334155">keywords / target / filters / exclude</text>

  <path fill="#12B5CB" fill-opacity="0.12" stroke="#12B5CB" d="M652,490 H1204 A12,12 0 0 1 1216,502 V628 A12,12 0 0 1 1204,640 H652 A12,12 0 0 1 640,628 V502 A12,12 0 0 1 652,490 Z" />
  <text x="670" y="546" font-family="&quot;Microsoft YaHei&quot;, &quot;PingFang SC&quot;, Arial, sans-serif" font-size="26" font-weight="700" fill="#0B1F3A">工程价值</text>
  <text x="670" y="584" font-family="&quot;Microsoft YaHei&quot;, &quot;PingFang SC&quot;, Arial, sans-serif" font-size="21" fill="#334155">为检索、过滤、重排提供一致输入协议</text>

  <text x="64" y="690" font-family="&quot;Microsoft YaHei&quot;, &quot;PingFang SC&quot;, Arial, sans-serif" font-size="16" fill="#64748B">04</text>
</svg>